 <svg  version="1.0" xmlns="http://www.w3.org/2000/svg"  width="300.000000pt" height="304.000000pt" viewBox="0 0 300.000000 304.000000"  preserveAspectRatio="xMidYMid meet">  <g transform="translate(0.000000,304.000000) scale(0.050000,-0.050000)" fill="#e9430c" stroke="none"> <path d="M2640 5947 c-1680 -240 -2794 -1655 -2601 -3305 218 -1868 2100 -3051 3898 -2449 1652 553 2465 2472 1722 4063 -67 145 -196 373 -243 434 -742 946 -1753 1404 -2776 1257z m847 -137 c2261 -408 3124 -3197 1494 -4832 -1747 -1754 -4753 -575 -4855 1904 -75 1828 1560 3253 3361 2928z"/> <path d="M2650 5706 c-2241 -290 -3196 -3002 -1624 -4611 1577 -1614 4332 -708 4643 1527 247 1765 -1267 3311 -3019 3084z m30 -187 c0 -12 9 -16 21 -8 11 7 36 0 54 -14 28 -23 30 -23 16 1 -13 21 -8 26 22 18 21 -6 109 -4 194 3 117 9 161 6 177 -14 12 -15 30 -19 39 -10 19 19 161 8 149 -12 -5 -7 46 -11 112 -9 85 2 117 -3 110 -20 -5 -15 13 -25 48 -26 31 -1 52 5 46 15 -15 24 -6 22 83 -23 43 -23 113 -46 154 -53 41 -7 75 -21 75 -32 0 -11 16 -16 35 -11 19 5 53 -8 75 -28 39 -38 39 -38 0 -26 -37 12 -38 11 -3 -10 20 -13 41 -18 48 -12 6 6 23 2 38 -11 15 -12 27 -16 27 -9 0 6 18 -6 40 -28 22 -22 54 -40 70 -40 17 0 30 -9 30 -20 0 -11 10 -20 22 -20 30 0 119 -72 105 -86 -6 -6 9 -6 34 1 39 10 43 5 31 -26 -8 -21 -9 -32 -2 -26 15 15 130 -85 130 -113 0 -11 19 -32 42 -47 35 -21 40 -21 28 1 -8 14 12 -1 45 -34 33 -33 57 -66 53 -73 -4 -7 6 -18 22 -24 87 -33 -6 -48 -335 -53 -529 -9 -523 -8 -551 -27 -14 -9 -38 -12 -54 -6 -15 6 -30 3 -34 -7 -3 -11 -35 -21 -71 -24 -36 -2 -65 -12 -65 -21 0 -10 -9 -12 -20 -5 -24 15 -125 -59 -106 -77 7 -7 -1 -13 -18 -13 -17 0 -53 -18 -80 -39 l-50 -39 -64 59 c-35 32 -72 59 -82 59 -18 0 -51 78 -44 104 2 8 -8 10 -23 5 -14 -6 -54 17 -89 50 -65 62 -98 79 -72 38 10 -16 5 -18 -13 -6 -15 9 -54 15 -85 12 -41 -3 -53 3 -42 22 12 19 9 20 -13 3 -33 -26 -241 -98 -264 -92 -8 2 -14 -3 -13 -11 9 -56 -4 -61 -108 -37 -58 14 -116 21 -130 17 -13 -5 -24 -1 -24 8 0 28 -196 16 -255 -15 -68 -35 -145 -109 -145 -138 0 -12 -9 -17 -20 -10 -11 7 -14 -1 -8 -19 7 -17 5 -31 -5 -31 -21 0 -20 -463 1 -496 8 -13 4 -24 -8 -24 -12 0 -17 -8 -11 -19 6 -10 4 -23 -6 -29 -17 -11 -15 -76 6 -202 10 -59 11 -203 3 -756 -2 -151 2 -285 9 -296 19 -30 -19 -219 -57 -283 -36 -60 -124 -78 -124 -25 0 17 -16 30 -35 30 -30 1 -31 3 -5 20 17 11 21 20 10 20 -13 0 -20 138 -20 372 0 204 -5 375 -11 379 -43 26 -8 544 37 534 13 -2 17 9 10 27 -8 22 -16 24 -26 8 -21 -34 -44 296 -23 333 10 18 10 65 2 105 -9 39 -14 106 -12 147 2 41 -1 75 -7 75 -6 0 -13 24 -16 53 -2 30 -18 69 -34 87 -17 18 -24 39 -17 46 7 7 -3 19 -22 27 -20 7 -56 32 -81 55 -41 38 -185 53 -302 31 -63 -12 -83 4 -80 65 2 34 14 67 28 71 13 5 24 26 24 47 0 25 14 38 40 38 26 0 48 20 61 51 15 42 28 49 64 37 41 -13 42 -11 15 23 -17 20 -19 30 -6 23 13 -8 29 -6 36 6 7 11 30 20 51 20 24 0 34 10 27 28 -6 16 12 44 42 65 29 20 79 58 111 83 32 26 66 42 76 36 10 -7 30 2 43 18 14 17 38 30 53 30 16 0 51 15 78 32 32 22 49 25 49 9 0 -14 10 -17 25 -8 14 9 43 14 65 12 22 -2 29 1 15 7 -49 22 12 93 67 79 32 -8 61 -1 79 18 17 16 45 24 63 17 22 -9 28 -5 18 10 -10 16 5 21 47 16 34 -4 61 0 61 8 0 8 24 10 53 4 34 -6 48 -2 40 11 -15 24 41 51 69 34 10 -7 13 -22 5 -33 -8 -14 -4 -16 10 -8 13 8 18 25 10 37 -9 14 -2 17 19 9 18 -7 38 -4 45 7 15 26 49 24 49 -2z m440 -1058 c351 -271 389 -960 66 -1188 -162 -114 -162 -122 -53 -1567 l13 -164 -71 -71 c-103 -103 -224 -89 -287 33 -37 71 -38 14 22 1048 34 596 32 607 -119 736 -479 409 -61 1552 429 1173z m-587 -27 c5 -5 -18 -49 -50 -97 -241 -356 -203 -838 88 -1127 128 -127 124 -90 88 -760 -25 -477 -40 -527 -204 -702 -388 -415 -1067 -351 -1372 129 -120 188 -122 205 -128 1438 l-5 1125 285 0 285 0 0 -1097 0 -1097 45 -66 c138 -203 377 -209 524 -12 40 54 41 79 46 1148 3 602 9 1103 13 1114 7 19 366 23 385 4z m2427 -279 l0 -285 -455 5 c-582 7 -695 -44 -691 -316 4 -267 90 -308 670 -315 l473 -6 1 -279 0 -279 -460 0 c-502 0 -528 -5 -623 -118 -106 -126 -87 -310 44 -428 100 -91 152 -98 645 -90 l394 6 6 -278 c4 -203 0 -280 -18 -286 -92 -35 -1002 8 -1116 53 -240 94 -390 232 -497 457 l-63 134 -6 510 -6 510 87 91 c198 207 264 543 163 828 l-28 81 75 67 c211 188 341 218 930 221 l475 2 0 -285z m311 -85 c20 -44 45 -86 55 -92 9 -7 16 -18 14 -26 -9 -32 50 -188 67 -178 11 7 14 -7 7 -35 -7 -26 -4 -57 6 -69 11 -13 22 -64 25 -114 3 -51 12 -88 20 -83 24 15 17 -63 -8 -88 -18 -18 -17 -30 1 -53 14 -16 28 -59 31 -96 4 -36 13 -115 20 -176 8 -60 6 -132 -5 -160 -10 -27 -11 -74 -3 -105 9 -30 8 -59 -1 -65 -9 -6 -14 -36 -10 -67 10 -76 -40 -215 -74 -207 -20 5 -21 1 -2 -18 18 -18 19 -35 2 -66 -21 -39 -20 -40 16 -13 32 25 31 21 -4 -20 -24 -27 -39 -60 -34 -74 5 -14 0 -25 -12 -25 -12 0 -20 -7 -18 -15 10 -31 -51 -207 -64 -186 -7 13 -15 -5 -17 -38 -5 -106 -9 -117 -34 -108 -14 5 -31 0 -38 -12 -23 -37 -47 -4 -81 112 -18 61 -37 107 -42 102 -12 -12 -139 106 -134 125 2 8 -19 10 -48 4 -33 -6 -47 -2 -39 11 15 24 -23 22 -63 -2 -14 -9 -41 -11 -60 -4 -18 8 -169 13 -334 13 -301 -1 -396 19 -361 77 7 11 4 21 -8 21 -14 0 -11 21 7 57 21 40 43 55 76 52 25 -2 55 3 66 11 31 23 707 40 721 19 16 -26 49 -24 49 2 0 12 -9 16 -20 9 -11 -7 -20 -2 -20 11 0 14 20 20 49 14 28 -5 45 -2 40 7 -5 8 -1 21 11 28 11 7 20 31 20 55 0 23 6 36 13 28 80 -79 134 514 56 616 -16 21 -29 60 -29 86 0 28 -9 42 -21 34 -12 -7 -54 3 -95 23 -53 25 -124 36 -249 37 -96 0 -175 10 -175 20 0 10 -10 9 -22 -3 -28 -28 -102 -9 -84 21 8 13 -1 11 -19 -4 -18 -14 -54 -23 -79 -20 -25 3 -59 -2 -74 -12 -22 -14 -26 -9 -15 20 14 35 13 35 -25 1 -85 -77 -224 47 -170 152 19 37 41 55 59 48 16 -6 29 -4 29 5 0 18 82 18 110 0 11 -7 52 -10 90 -6 91 8 239 11 290 6 22 -3 103 3 180 13 77 10 146 16 154 14 28 -7 157 163 133 178 -14 8 -7 19 21 27 23 8 38 22 32 31 -6 10 5 27 25 38 19 12 26 21 14 21 -12 1 -22 51 -23 120 -2 136 34 127 105 -29z m-4515 -950 c8 -1105 6 -1041 25 -1030 11 8 60 -111 110 -265 4 -14 17 -25 28 -25 12 0 21 -10 21 -22 0 -35 106 -174 151 -198 22 -12 52 -41 66 -63 21 -34 21 -39 -1 -26 -21 12 -21 10 0 -13 22 -23 28 -23 43 0 13 22 22 18 40 -16 13 -24 30 -39 39 -34 8 6 57 -11 109 -38 52 -26 101 -50 109 -54 8 -3 13 -10 11 -16 -2 -5 38 -12 88 -15 51 -2 98 -14 105 -26 18 -28 214 -29 248 -1 15 13 40 18 57 11 16 -6 35 2 41 17 6 16 32 30 57 31 42 1 109 13 137 24 6 2 30 2 54 0 29 -2 76 28 136 88 115 114 107 116 220 -38 52 -71 101 -128 107 -127 7 1 38 -8 69 -21 118 -48 294 -14 361 71 20 25 46 40 58 33 12 -7 15 -4 8 9 -8 11 -4 27 7 34 11 7 15 21 9 31 -6 11 -4 30 5 44 8 14 16 34 16 45 1 98 157 51 312 -93 67 -63 111 -92 124 -79 20 20 23 19 124 -20 89 -35 444 -58 877 -58 57 0 73 -8 73 -36 0 -39 -242 -249 -312 -272 -24 -7 -78 -47 -120 -87 -87 -84 -219 -153 -252 -132 -13 7 -16 4 -9 -8 14 -22 -101 -78 -120 -58 -7 6 -49 -13 -95 -44 -54 -36 -112 -56 -170 -58 -48 -2 -103 -18 -122 -35 -19 -17 -65 -35 -102 -40 -38 -4 -118 -17 -179 -29 -61 -11 -194 -18 -295 -15 -101 2 -184 -1 -184 -7 0 -17 -245 21 -270 41 -27 21 -148 46 -215 44 -30 -1 -55 7 -55 17 0 11 -29 20 -65 20 -70 1 -243 64 -226 81 6 6 -18 7 -52 2 -39 -6 -58 -2 -50 11 6 10 -25 36 -71 57 -45 20 -116 61 -157 91 -41 30 -79 50 -85 45 -5 -5 -35 18 -66 51 -32 34 -69 61 -83 61 -57 0 -312 252 -297 293 11 27 8 29 -18 7 -18 -15 -30 -17 -30 -4 0 11 -27 46 -60 77 -33 31 -60 67 -60 79 0 12 -18 42 -40 68 -21 25 -33 54 -26 66 6 11 3 14 -8 7 -12 -7 -38 11 -58 40 -21 28 -49 63 -63 78 -14 14 -25 44 -25 65 0 22 -13 45 -29 51 -16 6 -39 50 -52 97 -13 47 -31 96 -42 109 -31 38 -56 145 -36 157 9 6 14 22 10 36 -4 13 -13 49 -20 79 -7 32 -25 55 -44 55 -23 0 -29 14 -22 50 5 29 0 50 -13 50 -12 0 -8 9 8 20 23 15 24 19 3 20 -17 0 -23 12 -15 33 10 25 7 28 -13 12 -20 -17 -25 -1 -23 77 1 54 -6 98 -14 98 -9 0 -13 56 -10 125 19 375 30 516 44 539 9 14 17 78 18 142 1 78 11 123 31 137 20 14 22 23 6 30 -32 12 26 187 62 187 14 0 26 27 27 63 1 34 11 72 23 84 11 11 21 38 21 58 0 25 12 36 35 31 33 -6 35 -72 41 -976z"/> <path d="M2700 4266 c-132 -186 -205 -536 -110 -536 35 0 41 17 51 140 14 162 68 295 156 380 71 69 83 130 24 130 -24 0 -69 -42 -121 -114z"/> </g> </svg> 