 <svg  version="1.0" xmlns="http://www.w3.org/2000/svg"  width="348.000000pt" height="450.000000pt" viewBox="0 0 348.000000 450.000000"  preserveAspectRatio="xMidYMid meet">  <g transform="translate(0.000000,450.000000) scale(0.050000,-0.050000)" fill="#f23607" stroke="none"> <path d="M3190 8812 c-2316 -381 -3381 -3108 -1939 -4964 1213 -1560 3606 -1573 4840 -27 1601 2007 222 4971 -2331 5011 -274 4 -463 -3 -570 -20z m1065 -131 c2349 -477 3216 -3351 1518 -5031 -1618 -1602 -4337 -884 -4954 1308 -504 1791 705 3544 2601 3770 163 20 637 -7 835 -47z"/> <path d="M3279 8571 c-2347 -385 -3261 -3178 -1583 -4838 1757 -1738 4728 -542 4818 1939 63 1757 -1524 3179 -3235 2899z m196 -189 c47 -2 85 3 85 12 0 9 50 19 112 22 70 4 107 -1 99 -14 -7 -12 35 -18 114 -17 69 2 145 -3 170 -10 24 -7 49 -4 56 6 7 12 26 11 49 -1 21 -11 56 -20 79 -20 22 0 41 -10 41 -21 0 -12 9 -16 20 -9 30 18 175 -29 345 -113 22 -11 35 -10 35 3 0 11 9 20 20 20 11 0 19 -7 18 -15 -7 -43 8 -57 67 -61 36 -3 68 -14 72 -25 3 -10 13 -15 20 -11 8 5 36 -9 64 -31 27 -22 36 -34 21 -26 -19 10 -23 7 -13 -9 10 -17 22 -18 40 -3 19 16 33 13 51 -9 14 -16 33 -30 44 -30 26 0 76 -52 76 -79 0 -24 95 -71 160 -78 12 -2 31 -26 44 -54 13 -27 31 -47 42 -44 22 8 165 -128 158 -150 -2 -8 3 -15 12 -15 9 0 34 -14 55 -31 22 -18 28 -26 14 -19 -16 8 -20 1 -13 -19 7 -17 20 -26 30 -20 10 6 18 -3 18 -21 0 -18 -9 -27 -20 -20 -11 7 -20 3 -20 -8 0 -14 -17 -15 -51 -2 -38 15 -48 14 -37 -3 8 -13 5 -18 -5 -11 -19 12 -69 14 -337 16 -447 4 -498 2 -519 -25 -11 -15 -30 -28 -41 -28 -98 -7 -229 -37 -209 -50 17 -10 11 -19 -18 -28 -23 -7 -88 -45 -145 -84 -56 -39 -97 -61 -89 -49 7 12 2 22 -13 22 -14 0 -71 48 -126 107 -106 114 -274 213 -361 213 -28 0 -47 7 -42 16 6 8 -43 -10 -107 -41 -149 -71 -300 -117 -328 -100 -28 18 -60 24 -182 34 -138 11 -196 -4 -263 -67 -137 -131 -149 -176 -144 -522 7 -556 -1 -1067 -19 -1078 -11 -7 -13 -51 -5 -106 9 -62 7 -90 -6 -82 -12 8 -14 -1 -4 -26 29 -67 36 -148 16 -173 -21 -26 -18 -74 6 -132 34 -79 -21 -301 -75 -305 -14 0 -43 -4 -63 -8 -27 -5 -34 2 -27 29 7 27 0 34 -29 26 -21 -6 -37 -2 -35 7 3 10 -5 41 -16 68 -14 32 -22 421 -24 1080 -2 567 -11 1062 -21 1100 -9 39 -18 62 -19 53 -1 -10 -15 -7 -32 7 -16 13 -24 35 -17 47 8 13 6 17 -3 9 -8 -8 -42 4 -75 28 -52 37 -88 42 -255 42 -166 -1 -197 4 -217 36 -28 45 43 138 110 143 26 2 39 13 33 29 -6 14 -2 26 9 26 11 0 43 23 73 50 30 28 63 50 73 50 10 0 19 11 19 23 0 42 65 97 114 97 30 0 55 17 69 49 13 28 30 45 39 40 9 -6 28 7 41 28 13 22 35 35 48 30 13 -5 39 5 56 23 18 18 33 25 34 16 0 -9 15 2 32 24 23 29 34 33 41 14 8 -20 15 -19 33 5 13 16 44 33 70 37 25 4 54 19 62 33 9 14 26 21 37 14 11 -7 25 1 32 18 6 18 21 26 33 19 11 -8 32 -4 46 8 15 12 43 24 65 27 21 3 47 12 58 19 11 7 56 19 100 27 44 8 98 23 119 35 22 11 74 20 115 20 42 0 76 9 76 20 0 12 9 12 25 0 14 -11 63 -21 110 -24z m304 -1062 c407 -207 481 -978 122 -1279 -166 -139 -164 -100 -70 -1367 27 -358 27 -403 -2 -462 -59 -126 -213 -151 -314 -51 l-61 62 12 263 c7 145 26 498 43 784 36 628 34 642 -119 786 -230 216 -296 491 -196 814 115 367 367 562 585 450z m-543 -59 c4 -1 -21 -40 -55 -87 -259 -360 -225 -886 76 -1189 144 -146 136 -78 95 -805 -29 -516 -37 -545 -224 -741 -476 -498 -1325 -285 -1516 381 -27 93 -32 286 -37 1275 l-5 1165 295 0 295 0 0 -1135 1 -1135 45 -80 c121 -214 428 -223 557 -16 l47 76 5 1130 c3 622 9 1139 13 1150 5 15 312 23 408 11z m2524 -296 l0 -296 -465 7 c-623 9 -725 -38 -725 -332 0 -292 83 -332 694 -336 l478 -3 1 -287 1 -288 -498 -10 c-618 -12 -686 -44 -686 -318 0 -284 99 -331 710 -337 l480 -5 6 -290 5 -290 -486 0 c-638 0 -775 33 -1006 245 -250 228 -289 365 -289 1016 l0 498 47 31 c203 133 308 551 222 881 l-32 119 77 67 c216 189 351 221 961 222 l505 1 0 -295z m276 1 c2 -30 12 -59 22 -65 26 -16 100 -164 107 -214 4 -24 17 -55 29 -70 18 -22 47 -140 57 -227 1 -11 12 -56 24 -100 21 -77 20 -182 -2 -204 -6 -6 3 -25 20 -42 24 -23 29 -64 22 -178 -4 -81 -1 -152 7 -157 25 -16 12 -149 -15 -149 -18 0 -22 -18 -14 -60 8 -38 4 -60 -10 -60 -13 0 -21 -22 -19 -49 4 -38 10 -44 31 -27 27 22 26 -2 -5 -124 -4 -16 -8 -52 -9 -80 -1 -40 -6 -44 -21 -20 -15 24 -19 19 -20 -22 0 -28 -7 -58 -15 -66 -14 -15 -16 -22 -22 -73 -2 -12 -12 -16 -23 -9 -11 7 -20 4 -20 -7 0 -10 13 -24 28 -29 22 -9 13 -40 -40 -144 -37 -73 -68 -154 -68 -181 0 -35 -8 -45 -31 -36 -21 8 -35 -2 -42 -29 -6 -22 -27 -45 -48 -50 -34 -9 -35 -6 -9 33 23 36 23 49 1 79 -15 20 -22 53 -17 75 12 43 -39 134 -98 175 -20 15 -32 34 -27 43 13 21 -63 47 -128 44 -26 -1 -58 5 -70 13 -11 8 -39 14 -61 14 -22 -1 -47 8 -55 19 -9 13 -15 9 -15 -9 -1 -27 -3 -27 -20 0 -13 20 -19 21 -20 5 0 -17 -33 -23 -108 -20 -60 2 -105 10 -100 18 5 8 -9 13 -32 12 -22 -2 -40 -11 -40 -19 0 -9 -13 -16 -30 -16 -16 0 -30 11 -30 25 -1 17 -7 15 -20 -5 -18 -27 -22 -27 -40 0 -17 25 -23 26 -38 2 -16 -25 -68 -25 -162 0 -38 10 -80 81 -64 108 7 11 14 29 15 40 2 11 4 31 6 44 2 14 17 20 33 13 17 -6 30 0 30 13 0 18 34 22 120 16 76 -5 121 -1 122 13 0 11 6 10 11 -4 7 -16 22 -19 44 -8 18 9 163 15 321 13 159 -1 278 1 265 6 -13 4 -23 15 -23 25 0 10 11 13 25 8 14 -5 34 10 45 33 11 24 27 42 36 40 55 -13 98 104 101 274 1 96 5 158 9 139 14 -69 45 -34 36 40 -12 101 -14 103 -32 45 -11 -36 -15 -20 -13 60 2 78 -4 109 -22 105 -14 -3 -25 8 -25 23 0 15 -14 33 -32 40 -19 7 -27 25 -20 43 6 17 3 26 -7 20 -9 -6 -21 -1 -25 12 -9 25 -27 30 -181 50 -52 7 -95 20 -95 30 0 9 -13 17 -30 17 -16 0 -30 -9 -30 -20 0 -11 -23 -20 -51 -20 -29 0 -46 9 -39 20 7 11 -1 20 -17 20 -16 0 -34 -11 -38 -25 -7 -18 -23 -14 -57 15 -26 22 -36 26 -23 8 27 -35 15 -36 -118 -9 -46 9 -89 6 -118 -10 -38 -20 -50 -19 -69 7 -14 20 -32 25 -50 14 -31 -19 -120 62 -120 109 0 48 95 121 164 125 158 9 264 5 275 -9 14 -19 81 -25 81 -7 0 7 18 15 40 17 22 1 40 -8 40 -21 0 -14 8 -12 20 6 17 27 19 27 20 0 1 -27 3 -27 20 0 13 20 19 22 20 5 0 -14 19 -25 41 -25 23 0 36 9 29 20 -7 11 4 19 24 17 99 -9 177 6 136 25 -32 15 -27 16 20 7 108 -22 130 -17 130 29 0 20 13 48 28 60 29 25 95 151 91 174 -1 8 10 21 24 30 21 13 18 23 -13 47 -23 18 -27 27 -9 21 23 -8 31 5 34 55 2 53 0 58 -15 25 -9 -22 -18 -29 -19 -15 -5 92 87 121 95 31z m-4669 26 c10 -27 2 -259 -16 -447 -5 -56 0 -85 15 -85 15 0 13 -8 -5 -19 -25 -16 -25 -23 0 -53 24 -29 24 -36 2 -44 -17 -5 -20 -14 -7 -21 21 -14 38 -601 28 -1013 -3 -132 -1 -270 5 -306 7 -47 1 -69 -22 -78 -16 -6 -23 -17 -14 -24 30 -22 67 -101 67 -143 0 -23 9 -36 20 -29 11 7 20 -6 20 -28 0 -22 10 -46 22 -53 16 -10 14 -19 -5 -31 -21 -14 -20 -17 6 -18 19 0 42 -27 55 -63 12 -35 40 -76 62 -91 22 -16 40 -41 40 -57 0 -16 10 -29 22 -29 12 0 17 -13 12 -28 -7 -17 5 -32 29 -39 22 -5 45 -28 50 -50 6 -21 26 -44 44 -51 18 -6 47 -19 63 -29 101 -61 203 -104 220 -93 11 7 20 3 20 -9 0 -11 14 -21 30 -21 17 0 30 -10 30 -22 0 -12 15 -17 33 -10 17 7 43 4 56 -7 56 -46 591 -25 591 23 0 10 20 16 45 12 28 -4 43 4 40 19 -3 14 2 26 10 27 8 0 33 6 55 11 22 6 55 11 74 13 18 1 29 10 23 18 -5 9 5 16 22 16 17 0 31 14 31 31 0 17 9 26 20 19 11 -7 14 1 8 19 -7 17 -2 32 10 34 12 1 31 4 42 7 11 3 26 6 32 8 7 1 2 16 -12 32 -20 25 -19 30 8 30 17 0 31 -7 30 -15 -11 -65 5 -152 22 -125 14 22 19 23 20 4 0 -28 98 -169 125 -181 9 -4 27 -18 41 -32 14 -13 40 -22 60 -20 19 3 29 -3 23 -13 -6 -10 9 -19 35 -21 134 -9 156 -7 156 17 0 14 7 25 15 24 41 -6 106 30 97 53 -6 17 4 24 30 19 21 -4 34 0 28 10 -6 9 7 30 30 45 22 16 34 34 27 41 -15 16 32 77 50 66 7 -5 14 19 15 51 4 108 40 114 131 21 45 -46 94 -84 110 -84 31 0 130 -90 116 -105 -5 -4 2 -9 16 -10 94 -6 162 -24 177 -48 11 -17 17 -19 18 -3 0 16 17 18 58 7 60 -18 617 -54 652 -42 47 15 220 -3 234 -25 10 -16 16 -10 17 16 2 40 2 40 18 0 11 -28 6 -46 -16 -58 -17 -10 -54 -46 -82 -79 -81 -96 -119 -128 -311 -258 -99 -67 -184 -127 -190 -134 -5 -7 -23 -12 -40 -11 -16 1 -34 -4 -40 -11 -67 -79 -448 -218 -639 -233 -83 -6 -164 -12 -181 -14 -16 -1 -48 -13 -70 -25 -76 -43 -425 -52 -449 -12 -18 32 -20 32 -21 -5 0 -23 -7 -31 -15 -19 -8 12 -64 20 -125 18 -60 -2 -121 5 -135 16 -14 11 -63 22 -110 25 -122 8 -216 32 -203 52 5 10 -4 18 -22 18 -21 0 -27 -9 -17 -25 11 -19 8 -20 -14 -2 -16 12 -58 29 -93 36 -48 10 -61 22 -53 47 9 29 8 30 -11 4 -17 -25 -28 -26 -61 -5 -22 14 -53 25 -68 25 -15 0 -51 19 -80 41 -29 23 -53 37 -53 31 0 -6 -30 6 -67 26 -37 21 -89 50 -115 65 -27 15 -55 38 -64 51 -8 13 -28 19 -45 13 -16 -6 -29 -1 -29 11 0 12 -11 22 -25 22 -14 0 -34 20 -45 45 -11 25 -35 45 -54 45 -19 0 -63 30 -97 65 -35 36 -71 60 -81 54 -10 -6 -13 2 -7 17 6 16 -3 34 -21 41 -18 7 -27 22 -20 33 7 11 -4 20 -24 20 -20 1 -62 38 -95 84 -32 46 -47 76 -32 66 18 -11 22 -9 13 7 -8 13 -24 23 -37 23 -32 0 -115 82 -115 113 0 15 -9 27 -20 27 -11 0 -20 14 -20 31 0 17 -19 57 -43 88 -27 37 -39 76 -33 109 6 28 3 46 -7 40 -9 -6 -17 -30 -17 -53 0 -56 -41 -18 -45 42 -2 24 -11 43 -19 43 -9 0 -16 20 -16 45 0 25 -18 57 -40 70 -23 15 -40 47 -40 76 0 28 -14 72 -32 99 -17 26 -26 57 -20 67 7 11 4 23 -6 26 -10 4 -22 41 -28 83 -5 42 -25 93 -44 114 -37 41 -24 129 16 109 13 -7 3 5 -23 26 -51 42 -60 91 -71 430 -4 114 1 195 12 195 11 0 17 29 16 65 -8 143 1 297 17 287 9 -6 16 34 14 89 -1 54 3 99 9 99 6 0 22 19 37 42 19 31 19 38 1 27 -17 -11 -19 -7 -7 13 10 15 20 44 23 63 3 20 23 84 44 144 21 60 32 115 25 123 -7 8 -3 9 8 2 12 -7 33 19 47 57 13 38 35 69 48 69 16 1 14 7 -4 18 -15 10 -21 28 -13 40 19 30 45 28 58 -6z"/> <path d="M3401 7086 c-138 -192 -219 -566 -124 -566 31 0 39 21 49 125 17 176 64 299 156 402 86 98 100 153 39 153 -24 0 -69 -42 -120 -114z"/> <path d="M702 2133 c-17 -21 -14 -55 10 -135 18 -60 36 -119 40 -133 11 -40 68 -5 67 42 0 24 -13 66 -29 93 -16 28 -29 70 -29 94 -1 55 -30 74 -59 39z"/> <path d="M500 2085 c0 -19 14 -61 30 -92 17 -32 30 -79 30 -105 0 -55 30 -63 56 -16 20 36 9 123 -18 139 -10 6 -18 33 -18 60 0 36 -11 49 -40 49 -25 0 -40 -13 -40 -35z"/> <path d="M893 2107 c-23 -23 -14 -98 16 -138 17 -22 30 -60 30 -86 1 -65 49 -44 58 26 3 31 -4 66 -15 77 -12 12 -22 47 -22 78 0 53 -35 75 -67 43z"/> <path d="M3527 2028 c-31 -47 -32 -58 -5 -105 53 -96 238 -68 238 36 0 118 -168 168 -233 69z"/> <path d="M1604 1625 c5 -376 10 -422 47 -485 127 -216 496 -262 691 -86 106 96 118 156 118 602 l0 386 -115 -6 -115 -6 6 -350 c8 -479 -14 -538 -202 -539 -184 -2 -194 25 -194 498 l0 401 -121 0 -122 0 7 -415z"/> <path d="M3940 1520 c0 -286 0 -527 0 -535 0 -8 171 -17 380 -20 l380 -6 0 96 0 96 -270 -8 -270 -8 0 143 0 142 230 0 230 0 0 90 0 90 -230 0 -230 0 0 127 0 126 270 -9 270 -9 0 102 0 103 -380 0 -380 0 0 -520z"/> <path d="M5704 1861 l10 -101 -67 0 c-102 0 -105 -154 -3 -164 l64 -6 -5 -202 c-10 -348 39 -434 248 -434 133 0 129 -3 115 101 -10 77 -17 85 -66 85 -73 0 -80 24 -80 262 l0 198 70 0 c69 0 70 1 70 86 l0 86 -72 -8 -71 -9 6 98 6 97 -117 6 -117 6 9 -101z"/> <path d="M2628 1762 c-4 -5 -8 -187 -8 -405 l0 -397 123 0 123 0 -13 280 c-15 318 0 360 134 360 119 0 133 -36 133 -357 l0 -283 110 0 110 0 0 311 c0 323 -12 379 -93 452 -87 78 -280 68 -360 -18 l-47 -51 0 51 c0 47 -175 94 -212 57z"/> <path d="M5020 1753 c-120 -40 -200 -119 -200 -197 0 -61 173 -50 232 14 83 90 228 39 228 -80 0 -48 -5 -50 -131 -50 -222 0 -349 -92 -349 -253 0 -208 283 -319 443 -174 37 33 39 33 50 -9 10 -39 25 -44 129 -44 109 0 147 20 98 50 -12 7 -20 119 -20 266 -1 433 -155 586 -480 477z m260 -494 c0 -124 -205 -201 -261 -98 -28 52 20 134 86 148 155 34 175 28 175 -50z"/> <path d="M6367 1759 c-87 -26 -187 -145 -187 -221 0 -144 58 -188 345 -267 100 -28 115 -39 115 -81 0 -103 -188 -117 -252 -19 -44 66 -228 74 -228 11 0 -117 175 -228 360 -229 393 -2 482 362 114 468 -205 59 -234 74 -234 115 0 109 204 115 243 6 12 -33 206 -35 212 -1 27 146 -278 283 -488 218z"/> <path d="M410 1732 c-142 -64 -270 -292 -163 -292 14 0 41 36 60 79 94 213 385 219 543 13 53 -70 110 -95 110 -49 0 13 -22 53 -50 89 -67 88 -64 102 30 118 117 20 217 -35 280 -155 54 -102 100 -124 100 -48 0 189 -306 343 -478 241 -51 -30 -60 -30 -118 0 -75 39 -231 41 -314 4z"/> <path d="M3520 1360 l0 -400 110 0 110 0 0 400 0 400 -110 0 -110 0 0 -400z"/> <path d="M422 1568 c-34 -28 -62 -70 -62 -92 0 -36 7 -34 71 22 86 76 158 79 249 12 107 -79 166 -56 79 31 -93 93 -244 106 -337 27z"/> <path d="M945 1596 c4 -13 33 -31 64 -39 30 -8 69 -33 84 -56 33 -46 87 -55 87 -15 0 52 -109 134 -178 134 -42 0 -62 -9 -57 -24z"/> <path d="M513 1487 c-28 -29 -10 -47 46 -47 66 0 97 30 49 48 -41 16 -78 15 -95 -1z"/> <path d="M184 1350 c3 -22 13 -38 21 -35 8 3 276 5 595 5 561 0 580 1 580 39 0 37 -18 38 -601 35 -588 -4 -600 -5 -595 -44z"/> <path d="M200 1234 c0 -36 99 -177 157 -224 104 -84 127 -89 430 -89 l296 -1 87 62 c70 51 190 218 190 266 0 6 -261 12 -580 11 -447 0 -580 -6 -580 -25z"/> <path d="M504 818 c10 -69 556 -71 556 -3 0 45 -3 45 -281 45 -276 0 -282 -1 -275 -42z"/> <path d="M1693 435 c2 -176 8 -225 30 -225 18 0 29 31 33 94 l6 94 104 6 c76 4 104 14 104 36 0 23 -23 29 -105 26 l-105 -5 0 71 0 72 115 -7 c96 -6 115 -1 121 28 6 31 -11 35 -150 35 l-156 0 3 -225z"/> <path d="M2201 625 c-97 -79 -90 -304 12 -384 154 -121 337 50 287 269 -23 100 -82 150 -180 150 -42 0 -95 -15 -119 -35z m208 -69 c73 -105 18 -276 -89 -276 -101 0 -155 137 -97 246 45 87 136 101 186 30z"/> <path d="M2727 612 c-82 -70 -83 -265 -2 -346 132 -132 315 -41 315 156 0 215 -167 316 -313 190z m205 -54 c45 -50 52 -195 11 -245 -75 -89 -203 -13 -203 120 0 145 110 216 192 125z"/> <path d="M3219 657 c0 -4 -2 -104 -5 -222 l-4 -215 116 0 c302 0 309 411 7 436 -62 5 -113 6 -114 1z m212 -106 c99 -100 42 -271 -91 -271 l-60 0 0 147 c0 80 6 152 13 160 28 27 91 11 138 -36z"/> <path d="M4009 611 c-65 -66 -71 -258 -9 -336 90 -114 320 -68 320 64 0 37 -78 23 -100 -19 -47 -88 -164 -44 -189 72 -35 165 105 274 200 155 25 -31 52 -47 66 -39 69 43 -44 152 -157 152 -60 0 -95 -13 -131 -49z"/> <path d="M4538 623 c-73 -60 -81 -274 -12 -354 146 -169 377 15 314 250 -36 135 -196 189 -302 104z m190 -49 c51 -37 65 -181 24 -244 -69 -105 -212 -40 -212 96 0 136 98 214 188 148z"/> <path d="M5020 473 c0 -253 122 -355 272 -227 79 69 105 414 30 414 -39 0 -42 -11 -42 -166 0 -182 -16 -214 -103 -214 -76 0 -97 49 -97 229 0 121 -6 151 -30 151 -25 0 -30 -34 -30 -187z"/> <path d="M5539 655 c-19 -119 -4 -445 21 -445 21 0 33 28 40 90 6 50 17 88 25 85 8 -3 28 -5 45 -5 16 0 48 -36 70 -81 44 -85 90 -117 121 -86 12 12 -4 50 -41 100 -59 81 -59 82 -20 117 56 51 53 158 -4 199 -36 25 -253 47 -257 26z m175 -67 c109 -30 63 -148 -58 -148 -52 0 -56 6 -56 80 0 85 16 94 114 68z"/> <path d="M5964 625 c5 -27 23 -34 81 -29 l74 7 5 -197 c5 -157 12 -196 36 -196 24 0 29 36 30 190 l0 190 58 -6 c56 -6 100 27 80 60 -23 37 -371 18 -364 -19z"/> </g> </svg> 