 <svg  version="1.0" xmlns="http://www.w3.org/2000/svg"  width="300.000000pt" height="98.000000pt" viewBox="0 0 300.000000 98.000000"  preserveAspectRatio="xMidYMid meet">  <g transform="translate(0.000000,98.000000) scale(0.050000,-0.050000)" fill="#e3430c" stroke="none"> <path d="M448 1791 c-8 -20 -4 -65 9 -100 13 -35 23 -79 23 -97 0 -43 37 -44 53 -3 13 32 -27 184 -56 217 -9 11 -22 3 -29 -17z"/> <path d="M607 1755 c34 -197 50 -229 84 -173 23 37 -33 238 -66 238 -22 0 -27 -16 -18 -65z"/> <path d="M768 1740 c6 -33 18 -87 24 -120 13 -65 42 -79 61 -30 17 45 -37 210 -70 210 -20 0 -24 -16 -15 -60z"/> <path d="M3044 1736 c-73 -73 30 -204 125 -160 105 48 79 184 -36 184 -36 0 -76 -11 -89 -24z"/> <path d="M1388 1722 c-25 -26 -6 -667 23 -739 101 -253 552 -268 673 -22 28 57 34 131 35 422 l1 353 -95 -6 -95 -6 -5 -346 c-7 -420 -42 -482 -238 -417 -97 32 -107 74 -107 446 l0 324 -92 0 c-50 -1 -95 -5 -100 -9z"/> <path d="M3400 1725 c-1 -3 -1 -210 -1 -460 l-1 -455 331 -5 331 -6 0 81 0 80 -237 0 -237 0 6 115 5 115 192 0 191 0 0 87 0 87 -195 -7 -195 -7 0 109 0 108 225 -5 225 -5 0 86 0 87 -320 0 c-176 0 -320 -2 -320 -5z"/> <path d="M4920 1573 c0 -94 -2 -97 -50 -85 -47 12 -50 8 -50 -65 0 -72 4 -77 50 -68 l50 10 0 -228 c0 -293 54 -372 243 -353 64 6 67 10 67 86 0 71 -5 79 -44 75 -66 -7 -82 44 -79 235 l3 170 60 0 c55 0 60 6 60 70 0 64 -5 70 -60 70 -58 0 -60 4 -60 87 l0 88 -95 2 -95 3 0 -97z"/> <path d="M370 1473 c-77 -34 -190 -162 -190 -214 0 -61 47 -46 87 27 97 180 311 181 472 1 58 -64 70 -71 77 -40 4 20 -11 57 -34 81 -66 70 -53 92 55 92 112 0 183 -45 223 -139 27 -67 80 -83 80 -24 0 160 -281 304 -402 205 -41 -33 -52 -34 -89 -10 -63 42 -210 53 -279 21z"/> <path d="M2265 1147 l5 -353 90 0 90 0 6 261 5 261 56 23 c148 61 193 -21 179 -331 l-9 -208 96 0 97 0 0 273 c0 238 -5 280 -40 337 -61 99 -231 125 -325 50 -28 -22 -57 -40 -63 -40 -7 0 -12 18 -12 40 0 34 -13 40 -90 40 l-91 0 6 -353z"/> <path d="M4266 1461 c-54 -33 -126 -130 -126 -170 0 -34 192 -8 215 29 37 58 135 53 176 -9 43 -65 23 -91 -67 -91 -251 0 -384 -145 -302 -327 46 -100 251 -142 332 -68 47 42 66 44 66 7 0 -19 30 -30 98 -35 l98 -7 -9 160 c-20 394 -22 412 -60 453 -93 103 -300 132 -421 58z m282 -358 c22 -36 -23 -134 -72 -158 -105 -51 -217 60 -131 131 42 34 186 54 203 27z"/> <path d="M5479 1484 c-253 -113 -194 -338 107 -405 130 -29 175 -75 123 -128 -53 -52 -209 -24 -209 39 0 23 -24 30 -101 30 -96 0 -101 -3 -89 -45 70 -244 556 -247 602 -4 23 125 -45 189 -260 247 -99 26 -123 41 -128 77 -12 82 161 103 187 23 9 -31 31 -38 112 -38 108 0 120 36 40 127 -72 82 -279 123 -384 77z"/> <path d="M3040 1160 c0 -176 0 -327 0 -335 0 -8 40 -18 90 -21 l90 -6 0 341 0 341 -90 0 -90 0 0 -320z"/> <path d="M833 1367 c-22 -23 -14 -47 15 -47 16 0 56 -22 88 -50 68 -57 84 -61 84 -22 0 60 -150 155 -187 119z"/> <path d="M349 1311 c-88 -88 -61 -121 35 -41 32 28 75 50 95 50 19 0 69 -22 109 -50 86 -58 92 -60 92 -21 0 105 -242 150 -331 62z"/> <path d="M147 1155 c-29 -47 45 -55 524 -55 484 0 521 4 504 55 -7 20 -1016 20 -1028 0z"/> <path d="M180 1014 c0 -20 49 -86 109 -145 l108 -109 264 0 c299 0 357 20 450 157 93 137 105 133 -441 133 -460 0 -490 -2 -490 -36z"/> <path d="M433 706 c-53 -53 -6 -66 238 -66 229 0 251 3 245 35 -7 36 -450 64 -483 31z"/> <path d="M1460 340 c0 -164 5 -200 30 -200 22 0 30 23 30 90 l0 90 90 0 c67 0 90 8 90 30 0 22 -23 30 -90 30 -83 0 -90 4 -90 50 0 47 7 50 100 50 76 0 100 7 100 30 0 24 -28 30 -130 30 l-130 0 0 -200z"/> <path d="M1881 487 c-142 -180 69 -459 228 -300 117 118 45 353 -109 353 -59 0 -87 -12 -119 -53z m198 -46 c52 -96 3 -241 -81 -241 -78 0 -126 151 -77 241 28 53 130 53 158 0z"/> <path d="M2341 487 c-140 -178 71 -457 228 -300 117 118 45 353 -109 353 -59 0 -87 -12 -119 -53z m198 -46 c35 -65 25 -171 -20 -212 -95 -86 -205 78 -137 204 32 60 127 64 157 8z"/> <path d="M2778 525 c-1 -8 -2 -96 -2 -194 l-1 -179 98 5 c279 14 252 382 -28 383 -36 0 -66 -7 -67 -15z m185 -78 c78 -70 34 -227 -64 -227 l-59 0 0 130 c0 142 39 173 123 97z"/> <path d="M3445 486 c-88 -135 -12 -346 123 -346 55 0 152 71 152 111 0 42 -46 36 -85 -11 -71 -83 -155 -25 -155 107 0 128 106 188 165 93 31 -50 75 -52 75 -3 0 109 -211 146 -275 49z"/> <path d="M3901 487 c-147 -187 75 -467 227 -285 112 132 46 338 -108 338 -59 0 -87 -12 -119 -53z m191 -42 c60 -79 11 -245 -72 -245 -79 0 -128 149 -79 241 26 49 115 51 151 4z"/> <path d="M4320 381 c0 -222 125 -318 251 -192 64 65 76 359 14 347 -30 -6 -34 -26 -28 -138 5 -102 -1 -139 -27 -165 -86 -86 -150 -14 -150 168 0 110 -6 139 -30 139 -24 0 -30 -31 -30 -159z"/> <path d="M4764 345 c5 -157 12 -195 36 -195 23 0 28 19 23 75 -9 110 68 107 133 -5 25 -44 58 -80 75 -80 40 0 36 40 -11 100 -47 60 -50 92 -10 107 115 44 -5 193 -155 193 l-96 0 5 -195z m196 105 c40 -49 9 -90 -69 -90 -66 0 -71 5 -71 60 0 68 92 88 140 30z"/> <path d="M5140 510 c0 -21 21 -30 71 -30 l71 0 -4 -161 c-2 -88 2 -165 8 -172 34 -33 54 31 54 174 l0 159 60 0 c40 0 60 10 60 30 0 24 -31 30 -160 30 -129 0 -160 -6 -160 -30z"/> </g> </svg> 